<svg width="36" height="36" viewBox="0 0 36 36" fill="none" xmlns="http://www.w3.org/2000/svg">
<g clip-path="url(#clip0_2143_441)">
<path d="M9.18992 22.2929C7.79067 22.2929 6.6583 21.1606 6.6583 19.7613C6.6583 18.3621 7.79663 17.2297 9.18992 17.2297C10.5832 17.2297 11.7215 18.3621 11.7215 19.7613C11.7215 21.1606 10.5892 22.2929 9.18992 22.2929Z" fill="#1A78AE"/>
<path fill-rule="evenodd" clip-rule="evenodd" d="M9.18992 15.2197C6.68792 15.2197 4.6543 17.2533 4.6543 19.7553C4.6543 22.2573 6.68792 24.291 9.18992 24.291C11.6919 24.291 13.7255 22.2573 13.7255 19.7553C13.7255 17.2533 11.6919 15.2197 9.18992 15.2197ZM6.6583 19.7613C6.6583 21.1606 7.79067 22.2929 9.18992 22.2929C10.5892 22.2929 11.7215 21.1606 11.7215 19.7613C11.7215 18.3621 10.5832 17.2297 9.18992 17.2297C7.79663 17.2297 6.6583 18.3621 6.6583 19.7613Z" fill="#1A78AE"/>
<path d="M18.3734 34.85C18.2964 29.8579 14.2055 25.8145 9.18963 25.8145C4.12043 25.8145 0.00585938 29.9291 0.00585938 34.9982C0.00585938 35.5496 0.450571 36.0002 1.00781 36.0002H17.3774H17.3834C18.4683 36.0002 18.3853 34.9034 18.3734 34.85ZM2.07497 34.0021C2.56114 30.51 5.56709 27.8124 9.18963 27.8124C12.8122 27.8124 15.8181 30.5041 16.3043 34.0021H2.07497Z" fill="#1A78AE"/>
<path d="M2.07497 34.0021C2.56114 30.51 5.56709 27.8124 9.18963 27.8124C12.8122 27.8124 15.8181 30.5041 16.3043 34.0021H2.07497Z" fill="#1A78AE"/>
<path d="M25.5541 0C19.7913 0 15.1016 4.68969 15.1016 10.4526C15.1016 12.7767 15.8783 15.0356 17.313 16.8735L16.1095 23.1047C16.0324 23.5079 16.2103 23.917 16.5542 24.1423C16.8684 24.3379 17.4257 24.2964 17.6807 24.1007L22.5898 20.4722C23.5621 20.7628 24.5522 20.905 25.5423 20.905C31.3052 20.905 35.9949 16.2153 35.9949 10.4524C35.9949 4.68951 31.317 0 25.5541 0ZM25.5541 18.9012C24.6114 18.9012 23.6687 18.7412 22.7557 18.415C22.4415 18.3024 22.0975 18.3558 21.8249 18.5574L18.5581 20.9645L19.3644 16.7905C19.4237 16.4941 19.3407 16.1798 19.1451 15.9486C17.8288 14.419 17.1056 12.4625 17.1056 10.4466C17.1056 5.78061 20.8941 1.99208 25.5601 1.99208C30.2262 1.99208 34.0147 5.78061 34.0147 10.4466C34.0146 15.1127 30.2201 18.9012 25.5541 18.9012Z" fill="#1A78AE"/>
<path d="M25.612 3.64062C25.5882 3.64062 25.5764 3.64062 25.5527 3.64062C24.4974 3.64062 23.4954 4.04975 22.7483 4.79675C21.9836 5.55566 21.5566 6.56945 21.5566 7.64853C21.5566 8.19991 22.0014 8.65049 22.5586 8.65049C23.1159 8.65049 23.5605 8.20587 23.5605 7.64853C23.5605 7.10899 23.774 6.59916 24.1535 6.22562C24.5329 5.85208 25.0488 5.63866 25.5823 5.65049C26.6377 5.66233 27.5388 6.56358 27.5508 7.61891C27.5567 8.33041 27.2128 8.97065 26.608 9.35016C25.3156 10.1505 24.5508 11.4904 24.5508 12.9312C24.5508 13.4826 24.9955 13.9332 25.5527 13.9332C26.1041 13.9332 26.5547 13.4885 26.5547 12.9312C26.5547 12.1842 26.9756 11.4846 27.6693 11.0518C28.8729 10.2988 29.5784 9.01229 29.5548 7.60121C29.5191 5.44295 27.7582 3.67621 25.612 3.64062Z" fill="#1A78AE"/>
<path d="M25.5527 14.876C25.0014 14.876 24.5508 15.3206 24.5508 15.8779V16.2633C24.5508 16.8147 24.9955 17.2653 25.5527 17.2653C26.1041 17.2653 26.5547 16.8205 26.5547 16.2633V15.8779C26.5548 15.3206 26.1041 14.876 25.5527 14.876Z" fill="#1A78AE"/>
</g>
<defs>
<clipPath id="clip0_2143_441">
<rect width="36" height="36" fill="white"/>
</clipPath>
</defs>
</svg>
