<svg width="17" height="18" viewBox="0 0 17 18" fill="none" xmlns="http://www.w3.org/2000/svg">
<path d="M15.9856 8.11163C16.3636 7.70322 16.4972 7.10392 16.334 6.54748C16.1708 5.99104 15.7449 5.59315 15.2224 5.509L11.2356 4.86708C11.2283 4.86591 11.2221 4.86082 11.2189 4.85357L9.43605 0.850669C9.20242 0.326006 8.72923 0 8.20117 0C7.6731 0 7.19999 0.326006 6.96636 0.850669L5.18347 4.85357C5.18024 4.86082 5.17399 4.86582 5.16669 4.86708L1.18003 5.509C0.657535 5.59315 0.231608 5.99104 0.0684327 6.54748C-0.0947428 7.10392 0.0387782 7.70322 0.416837 8.11163L3.30161 11.2275C3.30688 11.2332 3.30929 11.2413 3.30801 11.2493L2.62701 15.649C2.53774 16.2257 2.74773 16.7975 3.17486 17.1414C3.60207 17.4854 4.15776 17.5298 4.62508 17.2576L8.19086 15.1803C8.19733 15.1765 8.20516 15.1766 8.21163 15.1803L11.7774 17.2576C11.9807 17.376 12.2006 17.4345 12.4195 17.4345C12.7038 17.4345 12.9862 17.3357 13.2275 17.1414C13.6547 16.7975 13.8646 16.2257 13.7754 15.649L13.0944 11.2493C13.0931 11.2413 13.0956 11.2332 13.1008 11.2275L15.9856 8.11163ZM11.759 11.503L12.44 15.9027C12.4418 15.9143 12.4424 15.9178 12.4312 15.9269C12.4199 15.9359 12.4171 15.9342 12.4077 15.9287L8.84183 13.8514C8.44066 13.6178 7.9616 13.6178 7.56028 13.8514L3.9945 15.9286C3.9851 15.934 3.98224 15.9358 3.97102 15.9268C3.95981 15.9178 3.96033 15.9143 3.96214 15.9027L4.64314 11.503C4.71976 11.0079 4.57172 10.5031 4.2471 10.1524L1.36247 7.03661C1.35487 7.02836 1.35254 7.02594 1.35683 7.01134C1.36112 6.99675 1.36428 6.99625 1.37482 6.9945L5.36148 6.35258C5.81013 6.28035 6.19775 5.96836 6.39833 5.51792L8.18122 1.51494C8.18596 1.50443 8.18732 1.50118 8.20117 1.50118C8.21502 1.50118 8.21644 1.50443 8.22111 1.51494L10.004 5.51792C10.2047 5.96836 10.5922 6.28044 11.0409 6.35258L15.0275 6.9945C15.0381 6.99625 15.0412 6.99675 15.0455 7.01134C15.0498 7.02594 15.0475 7.02844 15.0399 7.03661L12.1551 10.1525C11.8305 10.5031 11.6825 11.008 11.759 11.503Z" fill="#1A78AE"/>
<path d="M11.759 11.503L12.44 15.9027C12.4418 15.9143 12.4424 15.9178 12.4312 15.9269C12.4199 15.9359 12.4171 15.9342 12.4077 15.9287L8.84183 13.8514C8.44066 13.6178 7.9616 13.6178 7.56028 13.8514L3.9945 15.9286C3.9851 15.934 3.98224 15.9358 3.97102 15.9268C3.95981 15.9178 3.96033 15.9143 3.96214 15.9027L4.64314 11.503C4.71976 11.0079 4.57172 10.5031 4.2471 10.1524L1.36247 7.03661C1.35487 7.02836 1.35254 7.02594 1.35683 7.01134C1.36112 6.99675 1.36428 6.99625 1.37482 6.9945L5.36148 6.35258C5.81013 6.28035 6.19775 5.96836 6.39833 5.51792L8.18122 1.51494C8.18596 1.50443 8.18732 1.50118 8.20117 1.50118C8.21502 1.50118 8.21644 1.50443 8.22111 1.51494L10.004 5.51792C10.2047 5.96836 10.5922 6.28044 11.0409 6.35258L15.0275 6.9945C15.0381 6.99625 15.0412 6.99675 15.0455 7.01134C15.0498 7.02594 15.0475 7.02844 15.0399 7.03661L12.1551 10.1525C11.8305 10.5031 11.6825 11.008 11.759 11.503Z" fill="#1A78AE"/>
</svg>
