<svg width="17" height="16" viewBox="0 0 17 16" fill="none" xmlns="http://www.w3.org/2000/svg">
<path d="M15.9856 7.32054C16.3636 6.95197 16.4972 6.41111 16.334 5.90894C16.1708 5.40677 15.7449 5.04768 15.2224 4.97174L11.2356 4.39242C11.2283 4.39136 11.2221 4.38677 11.2189 4.38022L9.43605 0.767708C9.20242 0.294213 8.72923 0 8.20117 0C7.6731 0 7.19999 0.294213 6.96636 0.767708L5.18347 4.38022C5.18024 4.38677 5.17399 4.39129 5.16669 4.39242L1.18003 4.97174C0.657535 5.04768 0.231608 5.40677 0.0684327 5.90894C-0.0947428 6.41111 0.0387782 6.95197 0.416837 7.32054L3.30161 10.1325C3.30688 10.1377 3.30929 10.145 3.30801 10.1523L2.62701 14.1229C2.53774 14.6433 2.74773 15.1594 3.17486 15.4697C3.60207 15.7802 4.15776 15.8202 4.62508 15.5745L8.19086 13.6999C8.19733 13.6964 8.20516 13.6965 8.21163 13.6999L11.7774 15.5745C11.9807 15.6814 12.2006 15.7342 12.4195 15.7342C12.7038 15.7342 12.9862 15.6451 13.2275 15.4697C13.6547 15.1594 13.8646 14.6433 13.7754 14.1228L13.0944 10.1523C13.0931 10.145 13.0956 10.1377 13.1008 10.1325L15.9856 7.32054ZM11.759 10.3812L12.44 14.3518C12.4418 14.3623 12.4424 14.3655 12.4312 14.3736C12.4199 14.3817 12.4171 14.3802 12.4077 14.3753L8.84183 12.5005C8.44066 12.2897 7.9616 12.2897 7.56028 12.5005L3.9945 14.3752C3.9851 14.3801 3.98224 14.3816 3.97102 14.3735C3.95981 14.3654 3.96033 14.3622 3.96214 14.3518L4.64314 10.3811C4.71976 9.93436 4.57172 9.47878 4.2471 9.16229L1.36247 6.35037C1.35487 6.34292 1.35254 6.34074 1.35683 6.32757C1.36112 6.3144 1.36428 6.31394 1.37482 6.31236L5.36148 5.73305C5.81013 5.66787 6.19775 5.3863 6.39833 4.97979L8.18122 1.3672C8.18596 1.35771 8.18732 1.35478 8.20117 1.35478C8.21501 1.35478 8.21644 1.35771 8.22111 1.3672L10.004 4.97979C10.2047 5.3863 10.5922 5.66794 11.0409 5.73305L15.0275 6.31236C15.0381 6.31394 15.0412 6.3144 15.0455 6.32757C15.0498 6.34074 15.0475 6.343 15.0399 6.35037L12.1551 9.16237C11.8305 9.47878 11.6825 9.93444 11.759 10.3812Z" fill="white"/>
<path d="M11.759 10.3812L12.44 14.3518C12.4418 14.3623 12.4424 14.3655 12.4312 14.3736C12.4199 14.3817 12.4171 14.3802 12.4077 14.3753L8.84183 12.5005C8.44066 12.2897 7.9616 12.2897 7.56028 12.5005L3.9945 14.3752C3.9851 14.3801 3.98224 14.3816 3.97102 14.3735C3.95981 14.3654 3.96033 14.3622 3.96214 14.3518L4.64314 10.3811C4.71976 9.93436 4.57172 9.47878 4.2471 9.16229L1.36247 6.35037C1.35487 6.34292 1.35254 6.34074 1.35683 6.32757C1.36112 6.3144 1.36428 6.31394 1.37482 6.31236L5.36148 5.73305C5.81013 5.66787 6.19775 5.3863 6.39833 4.97979L8.18122 1.3672C8.18596 1.35771 8.18732 1.35478 8.20117 1.35478C8.21501 1.35478 8.21644 1.35771 8.22111 1.3672L10.004 4.97979C10.2047 5.3863 10.5922 5.66794 11.0409 5.73305L15.0275 6.31236C15.0381 6.31394 15.0412 6.3144 15.0455 6.32757C15.0498 6.34074 15.0475 6.343 15.0399 6.35037L12.1551 9.16237C11.8305 9.47878 11.6825 9.93444 11.759 10.3812Z" fill="white"/>
</svg>
