<svg width="38" height="36" viewBox="0 0 38 36" fill="none" xmlns="http://www.w3.org/2000/svg">
<path d="M27.2426 23.2811L28.8203 32.1855C28.8244 32.2091 28.8257 32.2162 28.7997 32.2344C28.7737 32.2527 28.7671 32.2493 28.7453 32.2381L20.4842 28.0339C19.5548 27.5611 18.4449 27.5611 17.5152 28.0339L9.2542 32.238C9.23241 32.2489 9.22578 32.2525 9.1998 32.2343C9.17382 32.216 9.17504 32.2089 9.17922 32.1855L10.7569 23.2809C10.9344 22.2789 10.5914 21.2572 9.83939 20.5475L3.15648 14.2414C3.13887 14.2247 3.13347 14.2198 3.14341 14.1903C3.15334 14.1607 3.16067 14.1597 3.18508 14.1562L12.4211 12.857C13.4605 12.7108 14.3585 12.0794 14.8232 11.1677L18.9537 3.06609C18.9647 3.04483 18.9678 3.03824 18.9999 3.03824C19.032 3.03824 19.0353 3.04483 19.0461 3.06609L23.1766 11.1677C23.6415 12.0794 24.5393 12.711 25.5787 12.857L34.8148 14.1562C34.8392 14.1597 34.8465 14.1607 34.8564 14.1903C34.8664 14.2198 34.861 14.2249 34.8433 14.2414L28.1601 20.5476C27.4082 21.2572 27.0652 22.2791 27.2426 23.2811Z" fill="#1A78AE"/>
<path fill-rule="evenodd" clip-rule="evenodd" d="M37.0343 16.4172C37.9102 15.5906 38.2195 14.3776 37.8415 13.2515C37.4634 12.1253 36.4767 11.32 35.2662 11.1497L26.03 9.85049C26.0131 9.84813 25.9986 9.83784 25.9911 9.82315L21.8608 1.72167C21.3196 0.659805 20.2233 0 18.9999 0C17.7765 0 16.6804 0.659805 16.1392 1.72167L12.0087 9.82315C12.0012 9.83784 11.9868 9.84796 11.9698 9.85049L2.73381 11.1497C1.52333 11.32 0.536574 12.1253 0.15854 13.2515C-0.219494 14.3776 0.0898386 15.5906 0.965699 16.4172L7.64895 22.7234C7.66116 22.7348 7.66674 22.7514 7.66377 22.7676L6.08607 31.6722C5.87927 32.8392 6.36576 33.9966 7.35531 34.6925C8.34504 35.3888 9.63241 35.4786 10.7151 34.9277L18.976 30.7236C18.991 30.7158 19.0092 30.716 19.0242 30.7236L27.2851 34.9277C27.7561 35.1673 28.2656 35.2857 28.7727 35.2857C29.4312 35.2857 30.0857 35.0858 30.6447 34.6925C31.6342 33.9966 32.1206 32.8392 31.9139 31.672L30.3362 22.7676C30.3333 22.7514 30.339 22.7348 30.351 22.7234L37.0343 16.4172ZM28.8203 32.1855L27.2426 23.2811C27.0652 22.2791 27.4082 21.2572 28.1601 20.5476L34.8433 14.2414C34.861 14.2249 34.8664 14.2198 34.8564 14.1903C34.8465 14.1607 34.8392 14.1597 34.8148 14.1562L25.5787 12.857C24.5393 12.711 23.6415 12.0794 23.1766 11.1677L19.0461 3.06609C19.0353 3.04483 19.032 3.03824 18.9999 3.03824C18.9678 3.03824 18.9647 3.04483 18.9537 3.06609L14.8232 11.1677C14.3585 12.0794 13.4605 12.7108 12.4211 12.857L3.18508 14.1562C3.16067 14.1597 3.15334 14.1607 3.14341 14.1903C3.13347 14.2198 3.13887 14.2247 3.15648 14.2414L9.83939 20.5475C10.5914 21.2572 10.9344 22.2789 10.7569 23.2809L9.17922 32.1855C9.17504 32.2089 9.17382 32.216 9.1998 32.2343C9.22578 32.2525 9.23241 32.2489 9.2542 32.238L17.5152 28.0339C18.4449 27.5611 19.5548 27.5611 20.4842 28.0339L28.7453 32.2381C28.7671 32.2493 28.7737 32.2527 28.7997 32.2344C28.8257 32.2162 28.8244 32.2091 28.8203 32.1855Z" fill="#1A78AE"/>
</svg>
