<svg width="34" height="32" viewBox="0 0 34 32" fill="none" xmlns="http://www.w3.org/2000/svg">
<path d="M10.8934 2.10603C7.89956 2.10603 5.46484 4.54074 5.46484 7.5346C5.46484 10.5285 7.89956 12.9632 10.8934 12.9632C13.8873 12.9632 16.322 10.5285 16.322 7.5346C16.322 4.54074 13.8873 2.10603 10.8934 2.10603Z" fill="#1A78AE"/>
<path d="M25.822 4.82031C23.5773 4.82031 21.7506 6.64703 21.7506 8.89174C21.7506 11.1365 23.5773 12.9632 25.822 12.9632C28.0667 12.9632 29.8934 11.1365 29.8934 8.89174C29.8934 6.64703 28.0667 4.82031 25.822 4.82031Z" fill="#1A78AE"/>
<path d="M3.42913 19.7489L3.29253 19.7625C3.12372 19.7968 3.00842 19.8884 2.9487 19.947C2.89007 20.0067 2.79844 20.1212 2.76413 20.2903L2.75056 20.4275V23.8203C2.75056 25.6375 3.5472 26.9811 5.18663 27.9257C6.53883 28.707 8.42932 29.1782 10.43 29.2416L10.8934 29.2489L11.4836 29.235C13.5472 29.1429 18.7839 28.4796 19.0275 24.1355L19.0363 23.819V20.4288C19.0363 20.0971 18.795 19.8189 18.4793 19.7612L18.3577 19.7502L3.42913 19.7489Z" fill="#1A78AE"/>
<path fill-rule="evenodd" clip-rule="evenodd" d="M21.0645 20.2262C20.9609 18.8213 19.7879 17.7145 18.3577 17.7145L3.42913 17.7132L3.22666 17.7206C1.82281 17.8243 0.714844 18.9973 0.714844 20.4275V23.8203L0.721767 24.1576C0.946983 29.5902 6.62013 31.2846 10.8934 31.2846C15.2539 31.2846 21.0706 29.5203 21.072 23.8203V20.4288L21.0645 20.2262ZM3.29253 19.7625L3.42913 19.7489L18.3577 19.7502L18.4793 19.7612C18.795 19.8189 19.0363 20.0971 19.0363 20.4288V23.819L19.0275 24.1355C18.7839 28.4796 13.5472 29.1429 11.4836 29.235L10.8934 29.2489L10.43 29.2416C8.42932 29.1782 6.53883 28.707 5.18663 27.9257C3.5472 26.9811 2.75056 25.6375 2.75056 23.8203V20.4275L2.76413 20.2903C2.79844 20.1212 2.89007 20.0067 2.9487 19.947C3.00842 19.8884 3.12372 19.7968 3.29253 19.7625ZM18.3577 7.5346C18.3577 3.41296 15.0164 0.0703125 10.8934 0.0703125C6.77042 0.0703125 3.42913 3.41296 3.42913 7.5346C3.42913 11.6562 6.77042 14.9989 10.8934 14.9989C15.0164 14.9989 18.3577 11.6562 18.3577 7.5346ZM31.9291 8.89174C31.9291 5.51924 29.1945 2.7846 25.822 2.7846C22.4495 2.7846 19.7148 5.51924 19.7148 8.89174C19.7148 12.2642 22.4495 14.9989 25.822 14.9989C29.1945 14.9989 31.9291 12.2642 31.9291 8.89174ZM5.46484 7.5346C5.46484 4.54074 7.89956 2.10603 10.8934 2.10603C13.8873 2.10603 16.322 4.54074 16.322 7.5346C16.322 10.5285 13.8873 12.9632 10.8934 12.9632C7.89956 12.9632 5.46484 10.5285 5.46484 7.5346ZM21.7506 8.89174C21.7506 6.64703 23.5773 4.82031 25.822 4.82031C28.0667 4.82031 29.8934 6.64703 29.8934 8.89174C29.8934 11.1365 28.0667 12.9632 25.822 12.9632C23.5773 12.9632 21.7506 11.1365 21.7506 8.89174Z" fill="#1A78AE"/>
<path d="M30.572 17.7132L30.7745 17.7206C32.1081 17.8191 33.1747 18.8826 33.2781 20.215L33.2863 20.4275V23.1417C33.2849 28.2432 28.6313 29.9275 25.1434 29.9275C23.7076 29.9275 22.0776 29.6357 20.6526 28.9435C21.0842 28.4305 21.4493 27.8605 21.7343 27.2227C23.0339 27.7927 24.4363 27.8815 25.0291 27.8908L25.4207 27.8867C26.8264 27.8384 31.0263 27.3647 31.2419 23.4574L31.2506 23.1417V20.4275C31.2506 20.0945 31.0093 19.8173 30.6936 19.7598L30.572 19.7489L22.3599 19.7502C22.2459 19.0698 21.9615 18.4507 21.5531 17.931L21.3706 17.7145L30.572 17.7132Z" fill="#1A78AE"/>
</svg>
