<svg width="19" height="18" viewBox="0 0 19 18" fill="none" xmlns="http://www.w3.org/2000/svg">
<path fill-rule="evenodd" clip-rule="evenodd" d="M11.5439 11.1758C11.4876 10.4117 10.8496 9.80984 10.0718 9.80984L1.95275 9.8091L1.84264 9.81316C1.07914 9.86954 0.476562 10.5075 0.476562 11.2853V13.1305L0.480328 13.314C0.602814 16.2685 3.68821 17.1901 6.01228 17.1901C8.38378 17.1901 11.5473 16.2305 11.548 13.1305V11.286L11.5439 11.1758ZM1.87846 10.9236L1.95275 10.9162L10.0718 10.917L10.1379 10.923C10.3096 10.9543 10.4408 11.1056 10.4408 11.286V13.1298L10.4361 13.302C10.3036 15.6646 7.45559 16.0253 6.33325 16.0754L6.01228 16.0829L5.76023 16.0789C4.67215 16.0445 3.64399 15.7882 2.90859 15.3633C2.01697 14.8496 1.58371 14.1188 1.58371 13.1305V11.2853L1.59109 11.2107C1.60975 11.1187 1.65958 11.0565 1.69147 11.024C1.72394 10.9921 1.78665 10.9423 1.87846 10.9236ZM10.0718 4.27339C10.0718 2.0318 8.25461 0.213867 6.01228 0.213867C3.76994 0.213867 1.95275 2.0318 1.95275 4.27339C1.95275 6.51499 3.76994 8.33291 6.01228 8.33291C8.25461 8.33291 10.0718 6.51499 10.0718 4.27339ZM17.4528 5.01149C17.4528 3.17732 15.9655 1.69006 14.1313 1.69006C12.2972 1.69006 10.8099 3.17732 10.8099 5.01149C10.8099 6.84565 12.2972 8.33291 14.1313 8.33291C15.9655 8.33291 17.4528 6.84565 17.4528 5.01149ZM3.0599 4.27339C3.0599 2.64515 4.38404 1.32101 6.01228 1.32101C7.64052 1.32101 8.96466 2.64515 8.96466 4.27339C8.96466 5.90163 7.64052 7.22577 6.01228 7.22577C4.38404 7.22577 3.0599 5.90163 3.0599 4.27339ZM11.917 5.01149C11.917 3.79068 12.9105 2.7972 14.1313 2.7972C15.3521 2.7972 16.3456 3.79068 16.3456 5.01149C16.3456 6.2323 15.3521 7.22577 14.1313 7.22577C12.9105 7.22577 11.917 6.2323 11.917 5.01149Z" fill="#F4F9FC"/>
<path d="M16.7147 9.8091L16.8248 9.81316C17.5501 9.86672 18.1302 10.4451 18.1864 11.1697L18.1908 11.2853V12.7615C18.1901 15.536 15.6592 16.452 13.7623 16.452C12.9814 16.452 12.0949 16.2933 11.3199 15.9168C11.5546 15.6378 11.7532 15.3278 11.9082 14.9809C12.615 15.2909 13.3777 15.3393 13.7001 15.3443L13.9131 15.3421C14.6776 15.3158 16.9617 15.0582 17.079 12.9332L17.0837 12.7615V11.2853C17.0837 11.1042 16.9525 10.9535 16.7808 10.9222L16.7147 10.9162L12.2484 10.917C12.1864 10.5469 12.0318 10.2102 11.8096 9.92759L11.7104 9.80984L16.7147 9.8091Z" fill="#F4F9FC"/>
</svg>
