<svg width="20" height="18" viewBox="0 0 20 18" fill="none" xmlns="http://www.w3.org/2000/svg">
<path d="M18.7987 8.33338C19.2433 7.91382 19.4003 7.29813 19.2084 6.72648C19.0165 6.15483 18.5156 5.74605 17.9012 5.6596L13.2129 5.00013C13.2043 4.99893 13.197 4.99371 13.1931 4.98625L11.0966 0.873925C10.8219 0.334919 10.2654 0 9.6444 0C9.02341 0 8.46703 0.334919 8.1923 0.873925L6.09566 4.98625C6.09185 4.99371 6.0845 4.99885 6.07592 5.00013L1.38769 5.6596C0.773248 5.74605 0.272366 6.15483 0.0804755 6.72648C-0.111416 7.29813 0.0456023 7.91382 0.490191 8.33338L3.88263 11.5344C3.88882 11.5403 3.89165 11.5487 3.89015 11.5569L3.08931 16.0769C2.98433 16.6693 3.23128 17.2568 3.73357 17.61C4.23596 17.9634 4.88943 18.009 5.439 17.7294L9.63228 15.5954C9.63989 15.5914 9.64909 15.5915 9.6567 15.5954L13.85 17.7294C14.0891 17.851 14.3477 17.9111 14.6051 17.9111C14.9394 17.9111 15.2716 17.8096 15.5553 17.61C16.0576 17.2568 16.3045 16.6693 16.1996 16.0768L15.3987 11.5569C15.3972 11.5487 15.4002 11.5403 15.4063 11.5344L18.7987 8.33338ZM13.8284 11.8175L14.6292 16.3374C14.6314 16.3494 14.632 16.353 14.6188 16.3623C14.6056 16.3715 14.6022 16.3698 14.5912 16.3642L10.3978 14.2301C9.92604 13.9901 9.36267 13.9901 8.89073 14.2301L4.69745 16.3641C4.68639 16.3696 4.68303 16.3714 4.66984 16.3622C4.65665 16.3529 4.65727 16.3493 4.65939 16.3374L5.46024 11.8174C5.55034 11.3088 5.37624 10.7902 4.9945 10.4299L1.60224 7.22898C1.5933 7.2205 1.59055 7.21802 1.5956 7.20302C1.60065 7.18803 1.60436 7.18751 1.61675 7.18572L6.30498 6.52625C6.8326 6.45205 7.28843 6.13152 7.52431 5.66877L9.62095 1.55636C9.62652 1.54556 9.62811 1.54222 9.6444 1.54222C9.66069 1.54222 9.66237 1.54556 9.66786 1.55636L11.7645 5.66877C12.0005 6.13152 12.4562 6.45213 12.9838 6.52625L17.672 7.18572C17.6844 7.18751 17.6882 7.18803 17.6932 7.20302C17.6982 7.21802 17.6955 7.22059 17.6866 7.22898L14.2941 10.43C13.9125 10.7902 13.7384 11.3089 13.8284 11.8175Z" fill="white"/>
</svg>
