<svg width="21" height="21" viewBox="0 0 21 21" fill="none" xmlns="http://www.w3.org/2000/svg">
<g clip-path="url(#clip0_1990_6506)">
<path d="M5.27566 8.7373C3.83933 8.7373 2.67188 9.90475 2.67188 11.3411C2.67188 12.7774 3.83933 13.9449 5.27566 13.9449C6.71199 13.9449 7.87944 12.7774 7.87944 11.3411C7.87944 9.90475 6.71199 8.7373 5.27566 8.7373ZM5.27566 12.7978C4.47238 12.7978 3.82232 12.1478 3.82232 11.3445C3.82232 10.5412 4.4758 9.89117 5.27566 9.89117C6.07551 9.89117 6.72899 10.5412 6.72899 11.3445C6.72899 12.1478 6.07893 12.7978 5.27566 12.7978Z" fill="white"/>
<path d="M10.5482 20.0064C10.504 17.1406 8.15552 14.8193 5.27607 14.8193C2.36597 14.8193 0.00390625 17.1815 0.00390625 20.0915C0.00390625 20.408 0.259204 20.6667 0.579102 20.6667H9.97646H9.97988C10.6027 20.6667 10.5551 20.0371 10.5482 20.0064ZM1.19173 19.5197C1.47083 17.5149 3.19647 15.9663 5.27607 15.9663C7.35567 15.9663 9.08131 17.5116 9.36041 19.5197H1.19173Z" fill="white"/>
<path d="M14.6704 0C11.3622 0 8.66992 2.69223 8.66992 6.00057C8.66992 7.33476 9.11581 8.63157 9.93946 9.68666L9.24854 13.2638C9.20431 13.4953 9.3064 13.7301 9.50384 13.8595C9.68421 13.9718 10.0042 13.948 10.1505 13.8356L12.9687 11.7526C13.5269 11.9194 14.0953 12.001 14.6637 12.001C17.972 12.001 20.6643 9.3088 20.6643 6.00046C20.6643 2.69213 17.9788 0 14.6704 0ZM14.6704 10.8507C14.1293 10.8507 13.5881 10.7588 13.0639 10.5716C12.8836 10.5069 12.6861 10.5376 12.5296 10.6533L10.6542 12.0351L11.1171 9.63902C11.1511 9.46885 11.1035 9.28842 10.9912 9.15569C10.2356 8.27755 9.82037 7.15438 9.82037 5.99715C9.82037 3.3185 11.9953 1.1436 14.6739 1.1436C17.3526 1.1436 19.5275 3.3185 19.5275 5.99715C19.5274 8.67579 17.3491 10.8507 14.6704 10.8507Z" fill="white"/>
<path d="M14.7031 2.08984C14.6894 2.08984 14.6826 2.08984 14.669 2.08984C14.0632 2.08984 13.488 2.32471 13.0591 2.75354C12.6201 3.18922 12.375 3.77121 12.375 4.39068C12.375 4.70721 12.6303 4.96588 12.9502 4.96588C13.2701 4.96588 13.5254 4.71063 13.5254 4.39068C13.5254 4.08094 13.6479 3.78826 13.8658 3.57382C14.0836 3.35938 14.3797 3.23687 14.6861 3.24366C15.2919 3.25045 15.8092 3.76784 15.8161 4.37367C15.8195 4.78213 15.6221 5.14967 15.2749 5.36754C14.5329 5.82701 14.0938 6.59622 14.0938 7.42334C14.0938 7.73987 14.3491 7.99854 14.669 7.99854C14.9856 7.99854 15.2442 7.74324 15.2442 7.42334C15.2442 6.99446 15.4859 6.59285 15.8841 6.3444C16.5751 5.91214 16.9801 5.17358 16.9665 4.36351C16.946 3.12451 15.9352 2.11027 14.7031 2.08984Z" fill="white"/>
<path d="M14.6689 8.54004C14.3524 8.54004 14.0938 8.79528 14.0938 9.11524V9.33647C14.0938 9.653 14.349 9.91166 14.6689 9.91166C14.9855 9.91166 15.2441 9.65637 15.2441 9.33647V9.11524C15.2442 8.79528 14.9855 8.54004 14.6689 8.54004Z" fill="white"/>
</g>
<defs>
<clipPath id="clip0_1990_6506">
<rect width="20.6667" height="20.6667" fill="white"/>
</clipPath>
</defs>
</svg>
