<svg width="21" height="21" viewBox="0 0 21 21" fill="none" xmlns="http://www.w3.org/2000/svg">
<path fill-rule="evenodd" clip-rule="evenodd" d="M12.5439 13.1758C12.4876 12.4117 11.8496 11.8098 11.0718 11.8098L2.95275 11.8091L2.84264 11.8132C2.07914 11.8695 1.47656 12.5075 1.47656 13.2853V15.1305L1.48033 15.314C1.60281 18.2685 4.68821 19.1901 7.01228 19.1901C9.38378 19.1901 12.5473 18.2305 12.548 15.1305V13.286L12.5439 13.1758ZM2.87846 12.9236L2.95275 12.9162L11.0718 12.917L11.1379 12.923C11.3096 12.9543 11.4408 13.1056 11.4408 13.286V15.1298L11.4361 15.302C11.3036 17.6646 8.45559 18.0253 7.33325 18.0754L7.01228 18.0829L6.76023 18.0789C5.67215 18.0445 4.64399 17.7882 3.90859 17.3633C3.01697 16.8496 2.58371 16.1188 2.58371 15.1305V13.2853L2.59109 13.2107C2.60975 13.1187 2.65958 13.0565 2.69147 13.024C2.72394 12.9921 2.78665 12.9423 2.87846 12.9236ZM11.0718 6.27339C11.0718 4.0318 9.25461 2.21387 7.01228 2.21387C4.76994 2.21387 2.95275 4.0318 2.95275 6.27339C2.95275 8.51499 4.76994 10.3329 7.01228 10.3329C9.25461 10.3329 11.0718 8.51499 11.0718 6.27339ZM18.4528 7.01149C18.4528 5.17732 16.9655 3.69006 15.1313 3.69006C13.2972 3.69006 11.8099 5.17732 11.8099 7.01149C11.8099 8.84565 13.2972 10.3329 15.1313 10.3329C16.9655 10.3329 18.4528 8.84565 18.4528 7.01149ZM4.0599 6.27339C4.0599 4.64515 5.38404 3.32101 7.01228 3.32101C8.64052 3.32101 9.96466 4.64515 9.96466 6.27339C9.96466 7.90163 8.64052 9.22577 7.01228 9.22577C5.38404 9.22577 4.0599 7.90163 4.0599 6.27339ZM12.917 7.01149C12.917 5.79068 13.9105 4.7972 15.1313 4.7972C16.3521 4.7972 17.3456 5.79068 17.3456 7.01149C17.3456 8.2323 16.3521 9.22577 15.1313 9.22577C13.9105 9.22577 12.917 8.2323 12.917 7.01149Z" fill="#F4F9FC"/>
<path d="M17.7147 11.8091L17.8248 11.8132C18.5501 11.8667 19.1302 12.4451 19.1864 13.1697L19.1908 13.2853V14.7615C19.1901 17.536 16.6592 18.452 14.7623 18.452C13.9814 18.452 13.0949 18.2933 12.3199 17.9168C12.5546 17.6378 12.7532 17.3278 12.9082 16.9809C13.615 17.2909 14.3777 17.3393 14.7001 17.3443L14.9131 17.3421C15.6776 17.3158 17.9617 17.0582 18.079 14.9332L18.0837 14.7615V13.2853C18.0837 13.1042 17.9525 12.9535 17.7808 12.9222L17.7147 12.9162L13.2484 12.917C13.1864 12.5469 13.0318 12.2102 12.8096 11.9276L12.7104 11.8098L17.7147 11.8091Z" fill="#F4F9FC"/>
</svg>
